<svg width="163" height="53" viewBox="0 0 163 53" fill="none" xmlns="http://www.w3.org/2000/svg">
<g clip-path="url(#clip0_1_418)">
<g clip-path="url(#clip1_1_418)">
<g clip-path="url(#clip2_1_418)">
<path d="M52.4248 26.6499C52.4248 12.3126 40.8021 0.689941 26.4648 0.689941C12.1275 0.689941 0.504822 12.3126 0.504822 26.6499C0.504822 40.9873 12.1275 52.6099 26.4648 52.6099C40.8021 52.6099 52.4248 40.9873 52.4248 26.6499Z" fill="url(#paint0_linear_1_418)"/>
<g filter="url(#filter0_d_1_418)">
<path d="M33.0566 35.8516C34.498 37.375 35.5996 38.1367 36.3613 38.1367C36.7949 38.1367 37.1875 38.0547 37.5391 37.8906L37.3633 40H33.7246C32.166 40 30.2207 38.5879 27.8887 35.7637C26.7168 34.2988 25.8906 33.2324 25.4102 32.5645L24.1973 30.8945C23.8691 30.4609 23.5703 30.0918 23.3008 29.7871V35.8516C23.3008 36.8477 23.3652 37.457 23.4941 37.6797C23.6348 37.8906 23.7812 38.0195 23.9336 38.0664C24.0977 38.1133 24.2793 38.1367 24.4785 38.1367C25.0527 38.1367 25.5156 38.0547 25.8672 37.8906L25.6035 40H17.0078L17.2891 38.1367C18.332 38.1367 19.0176 37.8672 19.3457 37.3281C19.6621 36.8477 19.8203 35.9043 19.8203 34.498V16.0059C19.8203 14.7988 19.6797 14.0313 19.3984 13.7031C19.1172 13.375 18.7246 13.1875 18.2207 13.1406C17.7168 13.0937 17.1309 13.0703 16.4629 13.0703L16.6738 11.0664L23.7227 10.0293C23.4414 11.2598 23.3008 14.248 23.3008 18.9941V28.2578C25.9375 26.0664 27.5898 24.6367 28.2578 23.9688C29.3711 22.832 29.9277 22.1172 29.9277 21.8242C29.9277 21.5078 29.8223 21.3145 29.6113 21.2441C29.248 21.1035 28.5918 21.0332 27.6426 21.0332L27.8535 19.082H37.0469L36.8711 21.0332H36.3438C35.4297 21.0332 34.3398 21.625 33.0742 22.8086C31.4219 24.1562 30.1914 25.1875 29.3828 25.9023C27.7891 27.3203 26.793 28.2227 26.3945 28.6094C26.4062 28.6328 26.5059 28.7559 26.6934 28.9785C29.0957 31.6855 30.625 33.3789 31.2812 34.0586L33.0566 35.8516Z" fill="white"/>
</g>
</g>
</g>
<path d="M76.0938 37.8672L76.1875 37.8555H76.2461L76.2109 39.3086L72.7656 40.1992C72.4297 39.6758 72.207 39.0625 72.0977 38.3594C71.2539 39.0625 70.1484 39.6094 68.7812 40C68.3125 40.1328 67.8281 40.1992 67.3281 40.1992C66.8359 40.1992 66.3438 40.1172 65.8516 39.9531C65.3672 39.7891 64.9453 39.5391 64.5859 39.2031C63.8281 38.4922 63.4492 37.4531 63.4492 36.0859L63.543 29.4648C63.543 28.6836 63.4219 28.1797 63.1797 27.9531C63 27.7891 62.6289 27.6797 62.0664 27.625L62.2422 26.4766L66.2734 25.8203L66.0391 28C65.875 29.5 65.793 31.7812 65.793 34.8438C65.793 36.0938 65.9688 36.9688 66.3203 37.4688C66.6641 37.9766 67.2734 38.2305 68.1484 38.2305C68.9375 38.2305 69.6211 38.1172 70.1992 37.8906C71.1211 37.5156 71.7031 37.1797 71.9453 36.8828L71.9219 36.8945V29.582C71.9219 28.7617 71.7617 28.2344 71.4414 28C71.1914 27.8047 70.6328 27.6992 69.7656 27.6836L69.9414 26.4766L74.4766 25.8203C74.4531 26.2266 74.4297 26.5781 74.4062 26.875L74.3594 27.6602C74.3438 27.918 74.3281 28.1523 74.3125 28.3633C74.2969 28.5664 74.2852 28.7812 74.2773 29.0078C74.2617 29.4609 74.2539 30.0742 74.2539 30.8477V36.4258C74.2539 37.1758 74.3164 37.6328 74.4414 37.7969C74.5742 37.9609 74.6953 38.0508 74.8047 38.0664C74.9219 38.082 75.0469 38.0898 75.1797 38.0898H75.2852C75.5273 38.0898 75.7969 38.0156 76.0938 37.8672ZM82.4219 38.4414C82.5391 38.582 82.6914 38.6719 82.8789 38.7109C83.0742 38.7422 83.4766 38.7578 84.0859 38.7578C84.6953 38.7578 85.1719 38.7109 85.5156 38.6172L85.4336 40H77.8867L78.0508 38.7578C78.7383 38.7578 79.1797 38.6367 79.375 38.3945C79.7266 37.957 79.9023 37.1836 79.9023 36.0742V30.4258C79.9023 29.3711 79.793 28.7188 79.5742 28.4688C79.332 28.1875 78.8008 28.0234 77.9805 27.9766L78.1445 26.4766L82.3516 25.8438C82.2734 26.4141 82.2344 27.0664 82.2344 27.8008C83.0547 27.0195 84.0156 26.4297 85.1172 26.0312C85.5078 25.8984 85.8789 25.832 86.2305 25.832C87.7305 25.832 88.4805 26.5 88.4805 27.8359C88.4805 28.625 88.3672 29.4727 88.1406 30.3789C88.125 30.4414 88.1133 30.4844 88.1055 30.5078C88.0977 30.5234 88.0938 30.5352 88.0938 30.543H86.1367L86.207 29.9922L86.2539 29.5234C86.2695 29.375 86.2773 29.2188 86.2773 29.0547C86.2773 28.8906 86.2617 28.7266 86.2305 28.5625C86.207 28.3984 86.1562 28.2617 86.0781 28.1523C85.9375 27.9414 85.6992 27.8359 85.3633 27.8359C85.0273 27.8359 84.707 27.8867 84.4023 27.9883C84.1055 28.0898 83.8164 28.2109 83.5352 28.3516C82.9648 28.6484 82.5234 28.9531 82.2109 29.2656L82.2344 29.2539L82.2461 37.1172C82.2461 37.8594 82.3047 38.3008 82.4219 38.4414ZM90.3555 32.9219C90.3555 31.8672 90.5508 30.8984 90.9414 30.0156C91.332 29.125 91.8555 28.3672 92.5117 27.7422C93.8633 26.4688 95.5234 25.832 97.4922 25.832C99.3984 25.832 100.91 26.4648 102.027 27.7305C103.098 28.9414 103.633 30.5195 103.633 32.4648C103.633 34.6758 102.938 36.5234 101.547 38.0078C100.18 39.4531 98.4961 40.1758 96.4961 40.1758C94.5273 40.1758 92.9922 39.4766 91.8906 38.0781C90.8672 36.7891 90.3555 35.0703 90.3555 32.9219ZM97.0234 38.6875C97.6172 38.6875 98.1406 38.582 98.5938 38.3711C99.0547 38.1602 99.4531 37.8359 99.7891 37.3984C100.523 36.4688 100.891 35.125 100.891 33.3672C100.891 31.4922 100.531 30.0039 99.8125 28.9023C99.0859 27.8008 98.0977 27.25 96.8477 27.25C95.7461 27.25 94.8516 27.6797 94.1641 28.5391C93.4062 29.4844 93.0273 30.8398 93.0273 32.6055C93.0273 34.4414 93.3828 35.9062 94.0938 37C94.8203 38.125 95.7969 38.6875 97.0234 38.6875ZM116.383 37.2344C117.344 38.25 118.078 38.7578 118.586 38.7578C118.875 38.7578 119.137 38.7031 119.371 38.5938L119.254 40H116.828C115.789 40 114.492 39.0586 112.938 37.1758C112.156 36.1992 111.605 35.4883 111.285 35.043L110.477 33.9297C110.258 33.6406 110.059 33.3945 109.879 33.1914V37.2344C109.879 37.8984 109.922 38.3047 110.008 38.4531C110.102 38.5938 110.199 38.6797 110.301 38.7109C110.41 38.7422 110.531 38.7578 110.664 38.7578C111.047 38.7578 111.355 38.7031 111.59 38.5938L111.414 40H105.684L105.871 38.7578C106.566 38.7578 107.023 38.5781 107.242 38.2188C107.453 37.8984 107.559 37.2695 107.559 36.332V24.0039C107.559 23.1992 107.465 22.6875 107.277 22.4688C107.09 22.25 106.828 22.125 106.492 22.0938C106.156 22.0625 105.766 22.0469 105.32 22.0469L105.461 20.7109L110.16 20.0195C109.973 20.8398 109.879 22.832 109.879 25.9961V32.1719C111.637 30.7109 112.738 29.7578 113.184 29.3125C113.926 28.5547 114.297 28.0781 114.297 27.8828C114.297 27.6719 114.227 27.543 114.086 27.4961C113.844 27.4023 113.406 27.3555 112.773 27.3555L112.914 26.0547H119.043L118.926 27.3555H118.574C117.965 27.3555 117.238 27.75 116.395 28.5391C115.293 29.4375 114.473 30.125 113.934 30.6016C112.871 31.5469 112.207 32.1484 111.941 32.4062C111.949 32.4219 112.016 32.5039 112.141 32.6523C113.742 34.457 114.762 35.5859 115.199 36.0391L116.383 37.2344ZM120.355 32.9219C120.355 31.8672 120.551 30.8984 120.941 30.0156C121.332 29.125 121.855 28.3672 122.512 27.7422C123.863 26.4688 125.523 25.832 127.492 25.832C129.398 25.832 130.91 26.4648 132.027 27.7305C133.098 28.9414 133.633 30.5195 133.633 32.4648C133.633 34.6758 132.938 36.5234 131.547 38.0078C130.18 39.4531 128.496 40.1758 126.496 40.1758C124.527 40.1758 122.992 39.4766 121.891 38.0781C120.867 36.7891 120.355 35.0703 120.355 32.9219ZM127.023 38.6875C127.617 38.6875 128.141 38.582 128.594 38.3711C129.055 38.1602 129.453 37.8359 129.789 37.3984C130.523 36.4688 130.891 35.125 130.891 33.3672C130.891 31.4922 130.531 30.0039 129.812 28.9023C129.086 27.8008 128.098 27.25 126.848 27.25C125.746 27.25 124.852 27.6797 124.164 28.5391C123.406 29.4844 123.027 30.8398 123.027 32.6055C123.027 34.4414 123.383 35.9062 124.094 37C124.82 38.125 125.797 38.6875 127.023 38.6875Z" fill="white"/>
</g>
<defs>
<filter id="filter0_d_1_418" x="12.4629" y="10.0293" width="29.0762" height="37.9707" filterUnits="userSpaceOnUse" color-interpolation-filters="sRGB">
<feFlood flood-opacity="0" result="BackgroundImageFix"/>
<feColorMatrix in="SourceAlpha" type="matrix" values="0 0 0 0 0 0 0 0 0 0 0 0 0 0 0 0 0 0 127 0" result="hardAlpha"/>
<feOffset dy="4"/>
<feGaussianBlur stdDeviation="2"/>
<feComposite in2="hardAlpha" operator="out"/>
<feColorMatrix type="matrix" values="0 0 0 0 0 0 0 0 0 0 0 0 0 0 0 0 0 0 0.25 0"/>
<feBlend mode="normal" in2="BackgroundImageFix" result="effect1_dropShadow_1_418"/>
<feBlend mode="normal" in="SourceGraphic" in2="effect1_dropShadow_1_418" result="shape"/>
</filter>
<linearGradient id="paint0_linear_1_418" x1="43.0792" y1="6.40114" x2="9.85042" y2="45.6007" gradientUnits="userSpaceOnUse">
<stop stop-color="#2FB97D"/>
<stop offset="1" stop-color="#1AB69D"/>
</linearGradient>
<clipPath id="clip0_1_418">
<rect width="162" height="51.92" fill="white" transform="translate(0.5 0.689941)"/>
</clipPath>
<clipPath id="clip1_1_418">
<rect width="162" height="51.92" fill="white" transform="translate(0.5 0.689941)"/>
</clipPath>
<clipPath id="clip2_1_418">
<rect width="161.99" height="51.92" fill="white" transform="translate(0.504822 0.689941)"/>
</clipPath>
</defs>
</svg>
