<svg width="170" height="56" viewBox="0 0 170 56" fill="none" xmlns="http://www.w3.org/2000/svg">
<g clip-path="url(#clip0_1_479)">
<g clip-path="url(#clip1_1_479)">
<mask id="mask0_1_479" style="mask-type:luminance" maskUnits="userSpaceOnUse" x="9" y="5" width="227" height="50">
<path d="M236 5.47H9V54.47H236V5.47Z" fill="white"/>
</mask>
<g mask="url(#mask0_1_479)">
<path d="M70 30C70 16.7452 59.031 6 45.5 6C31.969 6 21 16.7452 21 30C21 43.2548 31.969 54 45.5 54C59.031 54 70 43.2548 70 30Z" fill="url(#paint0_linear_1_479)"/>
</g>
<path d="M58.2246 17.1797C58.0605 17.1328 57.9434 17.1094 57.873 17.1094C57.8145 17.1094 57.6445 17.1152 57.3633 17.127C57.082 17.1387 56.8066 17.1914 56.5371 17.2852C56.2793 17.3672 55.9688 17.5312 55.6055 17.7773C54.7734 18.375 53.8184 19.2949 52.7402 20.5371L46.4121 27.832C48.1348 29.0508 50.1562 31.0781 52.4766 33.9141C53.0977 34.6875 53.625 35.3906 54.0586 36.0234C54.5039 36.6445 54.9199 37.207 55.3066 37.7109C55.6934 38.2031 56.0625 38.625 56.4141 38.9766C57.1172 39.6797 57.7148 40.0312 58.207 40.0312C58.7109 40.0312 59.1562 39.9785 59.543 39.873L59.4727 42H55.3418C54.0527 42 52.875 41.3262 51.8086 39.9785C51.4453 39.5215 51.1055 39.0234 50.7891 38.4844C49.8398 36.9375 49.1426 35.8359 48.6973 35.1797L47.3789 33.2812C45.8789 31.2188 44.6367 29.8066 43.6523 29.0449H42.0176V36.7266C42.0176 37.8984 42.0938 38.6719 42.2461 39.0469C42.5391 39.7266 43.0547 40.0664 43.793 40.0664C44.2734 40.0664 44.8711 39.9844 45.5859 39.8203L45.3574 42H35.3027L35.5137 40.0664C36.6504 40.0664 37.3828 39.832 37.7109 39.3633C38.0391 38.8945 38.2031 37.834 38.2031 36.1816V20.5195C38.2031 19.2539 38.127 18.4395 37.9746 18.0762C37.834 17.7012 37.6699 17.4551 37.4824 17.3379C37.2949 17.209 37.1016 17.1445 36.9023 17.1445C36.7148 17.1445 36.5508 17.1504 36.4102 17.1621C36.2695 17.1621 36.1172 17.168 35.9531 17.1797L35.4961 17.2148C35.3438 17.2266 35.209 17.2383 35.0918 17.25L35.4082 15.1055H44.918L44.6543 17.1445C43.6465 17.1445 42.9961 17.2969 42.7031 17.6016C42.2461 18.1055 42.0176 19.0195 42.0176 20.3438V27.0234H43.2305C43.6289 27.0234 43.9512 26.9238 44.1973 26.7246L49.1719 21.0117C49.6523 20.4492 49.9453 20.0801 50.0508 19.9043C50.2734 19.541 50.4668 19.2539 50.6309 19.043C51.0879 18.5039 51.3164 18.123 51.3164 17.9004C51.3164 17.3145 51 17.0215 50.3672 17.0215C49.793 17.0215 49.2598 17.0742 48.7676 17.1797L49.0664 15.1055H58.541L58.2246 17.1797Z" fill="white"/>
</g>
</g>
<path d="M94.0859 39.8672L94.1797 39.8555H94.2383L94.2031 41.3086L90.7578 42.1992C90.4219 41.6758 90.1992 41.0625 90.0898 40.3594C89.2461 41.0625 88.1406 41.6094 86.7734 42C86.3047 42.1328 85.8203 42.1992 85.3203 42.1992C84.8281 42.1992 84.3359 42.1172 83.8438 41.9531C83.3594 41.7891 82.9375 41.5391 82.5781 41.2031C81.8203 40.4922 81.4414 39.4531 81.4414 38.0859L81.5352 31.4648C81.5352 30.6836 81.4141 30.1797 81.1719 29.9531C80.9922 29.7891 80.6211 29.6797 80.0586 29.625L80.2344 28.4766L84.2656 27.8203L84.0312 30C83.8672 31.5 83.7852 33.7812 83.7852 36.8438C83.7852 38.0938 83.9609 38.9688 84.3125 39.4688C84.6562 39.9766 85.2656 40.2305 86.1406 40.2305C86.9297 40.2305 87.6133 40.1172 88.1914 39.8906C89.1133 39.5156 89.6953 39.1797 89.9375 38.8828L89.9141 38.8945V31.582C89.9141 30.7617 89.7539 30.2344 89.4336 30C89.1836 29.8047 88.625 29.6992 87.7578 29.6836L87.9336 28.4766L92.4688 27.8203C92.4453 28.2266 92.4219 28.5781 92.3984 28.875L92.3516 29.6602C92.3359 29.918 92.3203 30.1523 92.3047 30.3633C92.2891 30.5664 92.2773 30.7812 92.2695 31.0078C92.2539 31.4609 92.2461 32.0742 92.2461 32.8477V38.4258C92.2461 39.1758 92.3086 39.6328 92.4336 39.7969C92.5664 39.9609 92.6875 40.0508 92.7969 40.0664C92.9141 40.082 93.0391 40.0898 93.1719 40.0898H93.2773C93.5195 40.0898 93.7891 40.0156 94.0859 39.8672ZM100.414 40.4414C100.531 40.582 100.684 40.6719 100.871 40.7109C101.066 40.7422 101.469 40.7578 102.078 40.7578C102.688 40.7578 103.164 40.7109 103.508 40.6172L103.426 42H95.8789L96.043 40.7578C96.7305 40.7578 97.1719 40.6367 97.3672 40.3945C97.7188 39.957 97.8945 39.1836 97.8945 38.0742V32.4258C97.8945 31.3711 97.7852 30.7188 97.5664 30.4688C97.3242 30.1875 96.793 30.0234 95.9727 29.9766L96.1367 28.4766L100.344 27.8438C100.266 28.4141 100.227 29.0664 100.227 29.8008C101.047 29.0195 102.008 28.4297 103.109 28.0312C103.5 27.8984 103.871 27.832 104.223 27.832C105.723 27.832 106.473 28.5 106.473 29.8359C106.473 30.625 106.359 31.4727 106.133 32.3789C106.117 32.4414 106.105 32.4844 106.098 32.5078C106.09 32.5234 106.086 32.5352 106.086 32.543H104.129L104.199 31.9922L104.246 31.5234C104.262 31.375 104.27 31.2188 104.27 31.0547C104.27 30.8906 104.254 30.7266 104.223 30.5625C104.199 30.3984 104.148 30.2617 104.07 30.1523C103.93 29.9414 103.691 29.8359 103.355 29.8359C103.02 29.8359 102.699 29.8867 102.395 29.9883C102.098 30.0898 101.809 30.2109 101.527 30.3516C100.957 30.6484 100.516 30.9531 100.203 31.2656L100.227 31.2539L100.238 39.1172C100.238 39.8594 100.297 40.3008 100.414 40.4414ZM108.348 34.9219C108.348 33.8672 108.543 32.8984 108.934 32.0156C109.324 31.125 109.848 30.3672 110.504 29.7422C111.855 28.4688 113.516 27.832 115.484 27.832C117.391 27.832 118.902 28.4648 120.02 29.7305C121.09 30.9414 121.625 32.5195 121.625 34.4648C121.625 36.6758 120.93 38.5234 119.539 40.0078C118.172 41.4531 116.488 42.1758 114.488 42.1758C112.52 42.1758 110.984 41.4766 109.883 40.0781C108.859 38.7891 108.348 37.0703 108.348 34.9219ZM115.016 40.6875C115.609 40.6875 116.133 40.582 116.586 40.3711C117.047 40.1602 117.445 39.8359 117.781 39.3984C118.516 38.4688 118.883 37.125 118.883 35.3672C118.883 33.4922 118.523 32.0039 117.805 30.9023C117.078 29.8008 116.09 29.25 114.84 29.25C113.738 29.25 112.844 29.6797 112.156 30.5391C111.398 31.4844 111.02 32.8398 111.02 34.6055C111.02 36.4414 111.375 37.9062 112.086 39C112.812 40.125 113.789 40.6875 115.016 40.6875ZM134.375 39.2344C135.336 40.25 136.07 40.7578 136.578 40.7578C136.867 40.7578 137.129 40.7031 137.363 40.5938L137.246 42H134.82C133.781 42 132.484 41.0586 130.93 39.1758C130.148 38.1992 129.598 37.4883 129.277 37.043L128.469 35.9297C128.25 35.6406 128.051 35.3945 127.871 35.1914V39.2344C127.871 39.8984 127.914 40.3047 128 40.4531C128.094 40.5938 128.191 40.6797 128.293 40.7109C128.402 40.7422 128.523 40.7578 128.656 40.7578C129.039 40.7578 129.348 40.7031 129.582 40.5938L129.406 42H123.676L123.863 40.7578C124.559 40.7578 125.016 40.5781 125.234 40.2188C125.445 39.8984 125.551 39.2695 125.551 38.332V26.0039C125.551 25.1992 125.457 24.6875 125.27 24.4688C125.082 24.25 124.82 24.125 124.484 24.0938C124.148 24.0625 123.758 24.0469 123.312 24.0469L123.453 22.7109L128.152 22.0195C127.965 22.8398 127.871 24.832 127.871 27.9961V34.1719C129.629 32.7109 130.73 31.7578 131.176 31.3125C131.918 30.5547 132.289 30.0781 132.289 29.8828C132.289 29.6719 132.219 29.543 132.078 29.4961C131.836 29.4023 131.398 29.3555 130.766 29.3555L130.906 28.0547H137.035L136.918 29.3555H136.566C135.957 29.3555 135.23 29.75 134.387 30.5391C133.285 31.4375 132.465 32.125 131.926 32.6016C130.863 33.5469 130.199 34.1484 129.934 34.4062C129.941 34.4219 130.008 34.5039 130.133 34.6523C131.734 36.457 132.754 37.5859 133.191 38.0391L134.375 39.2344ZM138.348 34.9219C138.348 33.8672 138.543 32.8984 138.934 32.0156C139.324 31.125 139.848 30.3672 140.504 29.7422C141.855 28.4688 143.516 27.832 145.484 27.832C147.391 27.832 148.902 28.4648 150.02 29.7305C151.09 30.9414 151.625 32.5195 151.625 34.4648C151.625 36.6758 150.93 38.5234 149.539 40.0078C148.172 41.4531 146.488 42.1758 144.488 42.1758C142.52 42.1758 140.984 41.4766 139.883 40.0781C138.859 38.7891 138.348 37.0703 138.348 34.9219ZM145.016 40.6875C145.609 40.6875 146.133 40.582 146.586 40.3711C147.047 40.1602 147.445 39.8359 147.781 39.3984C148.516 38.4688 148.883 37.125 148.883 35.3672C148.883 33.4922 148.523 32.0039 147.805 30.9023C147.078 29.8008 146.09 29.25 144.84 29.25C143.738 29.25 142.844 29.6797 142.156 30.5391C141.398 31.4844 141.02 32.8398 141.02 34.6055C141.02 36.4414 141.375 37.9062 142.086 39C142.812 40.125 143.789 40.6875 145.016 40.6875Z" fill="black"/>
<defs>
<linearGradient id="paint0_linear_1_479" x1="61.18" y1="11.28" x2="30.5699" y2="48.1427" gradientUnits="userSpaceOnUse">
<stop stop-color="#2FB97D"/>
<stop offset="1" stop-color="#1AB69D"/>
</linearGradient>
<clipPath id="clip0_1_479">
<rect width="141" height="52" fill="white" transform="translate(19 3)"/>
</clipPath>
<clipPath id="clip1_1_479">
<rect width="227" height="49" fill="white" transform="translate(9 5.47)"/>
</clipPath>
</defs>
</svg>
